<svg width="40" height="38" viewBox="0 0 40 38" fill="none" xmlns="http://www.w3.org/2000/svg">
<path d="M27 6C27.7956 6 28.5587 6.31607 29.1213 6.87868C29.6839 7.44129 30 8.20435 30 9C30 9.79565 29.6839 10.5587 29.1213 11.1213C28.5587 11.6839 27.7956 12 27 12C26.2044 12 25.4413 11.6839 24.8787 11.1213C24.3161 10.5587 24 9.79565 24 9C24 8.20435 24.3161 7.44129 24.8787 6.87868C25.4413 6.31607 26.2044 6 27 6ZM24 0C21.3478 0 18.8043 1.05357 16.9289 2.92893C15.0536 4.8043 14 7.34784 14 10C14 13.4 15.7 16.4 18.28 18.2C15.12 18.5 11.56 19.22 8 21C2 24 0 20 0 20C0 20 2 38 14 38H26C26 38 36 38 36 28C36 22 30 20 32 16C40 16 40 9 40 9C38 10 35.52 10 34 9.3C33.8133 6.7744 32.6791 4.41264 30.8247 2.68798C28.9702 0.96333 26.5325 0.00320156 24 0Z" fill="black"/>
</svg>
