<svg width="319" height="48" viewBox="0 0 319 48" fill="none" xmlns="http://www.w3.org/2000/svg">
<path d="M16.75 7.5C15.7554 7.5 14.8016 7.89509 14.0983 8.59835C13.3951 9.30161 13 10.2554 13 11.25C13 12.2446 13.3951 13.1984 14.0983 13.9017C14.8016 14.6049 15.7554 15 16.75 15C17.7446 15 18.6984 14.6049 19.4017 13.9017C20.1049 13.1984 20.5 12.2446 20.5 11.25C20.5 10.2554 20.1049 9.30161 19.4017 8.59835C18.6984 7.89509 17.7446 7.5 16.75 7.5ZM20.5 0C23.8152 0 26.9946 1.31696 29.3388 3.66117C31.683 6.00537 33 9.18479 33 12.5C33 16.75 30.875 20.5 27.65 22.75C31.6 23.125 36.05 24.025 40.5 26.25C48 30 50.5 25 50.5 25C50.5 25 48 47.5 33 47.5H18C18 47.5 5.5 47.5 5.5 35C5.5 27.5 13 25 10.5 20C0.5 20 0.5 11.25 0.5 11.25C3 12.5 6.1 12.5 8 11.625C8.23332 8.468 9.65107 5.5158 11.9692 3.35998C14.2872 1.20416 17.3344 0.00400195 20.5 0Z" fill="#E1CB07"/>
<path d="M62.78 47.5V19.5H76.58C79.7 19.5 82.4467 20.0733 84.82 21.22C87.1933 22.34 89.0467 23.94 90.38 26.02C91.7133 28.1 92.38 30.58 92.38 33.46C92.38 36.3667 91.7133 38.8733 90.38 40.98C89.0467 43.06 87.1933 44.6733 84.82 45.82C82.4467 46.94 79.7 47.5 76.58 47.5H62.78ZM72.22 40.14H76.18C77.5133 40.14 78.6733 39.8867 79.66 39.38C80.6733 38.8733 81.46 38.1267 82.02 37.14C82.58 36.1267 82.86 34.9 82.86 33.46C82.86 32.0467 82.58 30.8467 82.02 29.86C81.46 28.8733 80.6733 28.1267 79.66 27.62C78.6733 27.1133 77.5133 26.86 76.18 26.86H72.22V40.14ZM104.667 47.9C102.934 47.9 101.36 47.5533 99.9469 46.86C98.5602 46.14 97.4669 45.0333 96.6669 43.54C95.8669 42.02 95.4669 40.0733 95.4669 37.7V25.62H104.507V36.14C104.507 37.6867 104.76 38.7667 105.267 39.38C105.774 39.9933 106.467 40.3 107.347 40.3C107.88 40.3 108.374 40.1667 108.827 39.9C109.307 39.6067 109.694 39.14 109.987 38.5C110.28 37.8333 110.427 36.9667 110.427 35.9V25.62H119.467V47.5H110.867V41.18L112.587 42.9C111.814 44.6067 110.707 45.8733 109.267 46.7C107.854 47.5 106.32 47.9 104.667 47.9ZM135.237 47.9C132.73 47.9 130.503 47.42 128.557 46.46C126.61 45.5 125.077 44.1667 123.957 42.46C122.863 40.7267 122.317 38.7533 122.317 36.54C122.317 34.3267 122.863 32.3667 123.957 30.66C125.077 28.9533 126.61 27.62 128.557 26.66C130.503 25.7 132.73 25.22 135.237 25.22C137.903 25.22 140.183 25.7933 142.077 26.94C143.97 28.0867 145.277 29.6733 145.997 31.7L138.997 35.14C138.543 34.1267 137.983 33.3933 137.317 32.94C136.677 32.4867 135.97 32.26 135.197 32.26C134.53 32.26 133.903 32.42 133.317 32.74C132.757 33.06 132.303 33.54 131.957 34.18C131.637 34.7933 131.477 35.58 131.477 36.54C131.477 37.5 131.637 38.3 131.957 38.94C132.303 39.58 132.757 40.06 133.317 40.38C133.903 40.7 134.53 40.86 135.197 40.86C135.97 40.86 136.677 40.6333 137.317 40.18C137.983 39.7267 138.543 38.9933 138.997 37.98L145.997 41.42C145.277 43.4467 143.97 45.0333 142.077 46.18C140.183 47.3267 137.903 47.9 135.237 47.9ZM155.646 43.9L155.846 33.26L163.406 25.62H174.086L164.086 36.1L159.566 39.74L155.646 43.9ZM148.086 47.5V17.82H157.126V47.5H148.086ZM163.886 47.5L157.886 39.9L163.446 33.06L174.806 47.5H163.886ZM188.874 47.5V19.5H196.634L207.834 37.78H203.754L214.634 19.5H222.394L222.474 47.5H213.874L213.794 32.46H215.154L207.714 44.98H203.554L195.794 32.46H197.474V47.5H188.874ZM238.838 47.9C236.171 47.9 233.838 47.4067 231.838 46.42C229.864 45.4333 228.331 44.0867 227.238 42.38C226.144 40.6467 225.598 38.7 225.598 36.54C225.598 34.3267 226.131 32.3667 227.198 30.66C228.291 28.9533 229.771 27.62 231.638 26.66C233.531 25.7 235.651 25.22 237.998 25.22C240.158 25.22 242.144 25.6467 243.958 26.5C245.798 27.3533 247.264 28.62 248.358 30.3C249.478 31.98 250.038 34.06 250.038 36.54C250.038 36.86 250.024 37.22 249.998 37.62C249.971 37.9933 249.944 38.34 249.918 38.66H233.078V34.3H245.118L241.718 35.46C241.718 34.6067 241.558 33.8867 241.238 33.3C240.944 32.6867 240.531 32.22 239.998 31.9C239.464 31.5533 238.824 31.38 238.078 31.38C237.331 31.38 236.678 31.5533 236.118 31.9C235.584 32.22 235.171 32.6867 234.878 33.3C234.584 33.8867 234.438 34.6067 234.438 35.46V36.82C234.438 37.7533 234.624 38.5533 234.998 39.22C235.371 39.8867 235.904 40.3933 236.598 40.74C237.291 41.06 238.131 41.22 239.118 41.22C240.131 41.22 240.958 41.0867 241.598 40.82C242.264 40.5533 242.958 40.1533 243.678 39.62L248.398 44.38C247.331 45.5267 246.011 46.4067 244.438 47.02C242.891 47.6067 241.024 47.9 238.838 47.9ZM262.491 47.9C260.597 47.9 258.837 47.4467 257.211 46.54C255.611 45.6067 254.331 44.3 253.371 42.62C252.411 40.9133 251.931 38.8867 251.931 36.54C251.931 34.1933 252.411 32.18 253.371 30.5C254.331 28.7933 255.611 27.4867 257.211 26.58C258.837 25.6733 260.597 25.22 262.491 25.22C264.411 25.22 265.984 25.6333 267.211 26.46C268.437 27.26 269.344 28.5 269.931 30.18C270.517 31.8333 270.811 33.9533 270.811 36.54C270.811 39.1533 270.531 41.3 269.971 42.98C269.437 44.66 268.557 45.9 267.331 46.7C266.131 47.5 264.517 47.9 262.491 47.9ZM264.651 40.86C265.317 40.86 265.917 40.7 266.451 40.38C266.984 40.06 267.411 39.58 267.731 38.94C268.051 38.2733 268.211 37.4733 268.211 36.54C268.211 35.58 268.051 34.7933 267.731 34.18C267.411 33.54 266.984 33.06 266.451 32.74C265.917 32.42 265.317 32.26 264.651 32.26C263.984 32.26 263.384 32.42 262.851 32.74C262.317 33.06 261.891 33.54 261.571 34.18C261.251 34.7933 261.091 35.58 261.091 36.54C261.091 37.4733 261.251 38.2733 261.571 38.94C261.891 39.58 262.317 40.06 262.851 40.38C263.384 40.7 263.984 40.86 264.651 40.86ZM268.491 47.5V44.54L268.451 36.54L268.051 28.54V17.82H277.091V47.5H268.491ZM281.094 47.5V25.62H290.134V47.5H281.094ZM285.614 23.86C283.96 23.86 282.64 23.42 281.654 22.54C280.667 21.66 280.174 20.5667 280.174 19.26C280.174 17.9533 280.667 16.86 281.654 15.98C282.64 15.1 283.96 14.66 285.614 14.66C287.267 14.66 288.587 15.0733 289.574 15.9C290.56 16.7267 291.054 17.7933 291.054 19.1C291.054 20.4867 290.56 21.6333 289.574 22.54C288.587 23.42 287.267 23.86 285.614 23.86ZM307.381 47.5V43.62L306.741 42.58V35.22C306.741 34.1533 306.407 33.34 305.741 32.78C305.101 32.22 304.047 31.94 302.581 31.94C301.594 31.94 300.594 32.1 299.581 32.42C298.567 32.7133 297.701 33.1267 296.981 33.66L294.101 27.7C295.381 26.9 296.914 26.2867 298.701 25.86C300.487 25.4333 302.234 25.22 303.941 25.22C307.701 25.22 310.607 26.06 312.661 27.74C314.741 29.42 315.781 32.0867 315.781 35.74V47.5H307.381ZM301.181 47.9C299.394 47.9 297.901 47.5933 296.701 46.98C295.501 46.3667 294.594 45.5533 293.981 44.54C293.367 43.5 293.061 42.3533 293.061 41.1C293.061 39.6867 293.421 38.4867 294.141 37.5C294.861 36.5133 295.954 35.7667 297.421 35.26C298.914 34.7533 300.794 34.5 303.061 34.5H307.621V38.86H304.501C303.541 38.86 302.834 39.02 302.381 39.34C301.954 39.6333 301.741 40.0867 301.741 40.7C301.741 41.2067 301.927 41.6333 302.301 41.98C302.701 42.3 303.234 42.46 303.901 42.46C304.514 42.46 305.074 42.3 305.581 41.98C306.114 41.6333 306.501 41.1 306.741 40.38L307.901 43.06C307.554 44.6867 306.821 45.9 305.701 46.7C304.581 47.5 303.074 47.9 301.181 47.9Z" fill="#E1CB07"/>
</svg>
