<svg width="50" height="48" viewBox="0 0 50 48" fill="none" xmlns="http://www.w3.org/2000/svg">
<path d="M16.25 7.5C15.2554 7.5 14.3016 7.89509 13.5983 8.59835C12.8951 9.30161 12.5 10.2554 12.5 11.25C12.5 12.2446 12.8951 13.1984 13.5983 13.9017C14.3016 14.6049 15.2554 15 16.25 15C17.2446 15 18.1984 14.6049 18.9017 13.9017C19.6049 13.1984 20 12.2446 20 11.25C20 10.2554 19.6049 9.30161 18.9017 8.59835C18.1984 7.89509 17.2446 7.5 16.25 7.5ZM20 0C23.3152 0 26.4946 1.31696 28.8388 3.66117C31.183 6.00537 32.5 9.18479 32.5 12.5C32.5 16.75 30.375 20.5 27.15 22.75C31.1 23.125 35.55 24.025 40 26.25C47.5 30 50 25 50 25C50 25 47.5 47.5 32.5 47.5H17.5C17.5 47.5 5 47.5 5 35C5 27.5 12.5 25 10 20C0 20 0 11.25 0 11.25C2.5 12.5 5.6 12.5 7.5 11.625C7.73332 8.468 9.15107 5.5158 11.4692 3.35998C13.7872 1.20416 16.8344 0.00400195 20 0Z" fill="#E1CB07"/>
</svg>
