<svg width="45" height="46" viewBox="0 0 45 46" fill="none" xmlns="http://www.w3.org/2000/svg">
<path d="M36.6487 33.9139C37.0449 34.3101 37.2676 34.8476 37.2676 35.408C37.2676 35.9684 37.0449 36.5059 36.6487 36.9022C36.2524 37.2984 35.7149 37.521 35.1545 37.521C34.5941 37.521 34.0567 37.2984 33.6604 36.9022L22.5 25.7383L11.3362 36.8986C10.9399 37.2949 10.4024 37.5175 9.84204 37.5175C9.28163 37.5175 8.74417 37.2949 8.3479 36.8986C7.95163 36.5024 7.729 35.9649 7.729 35.4045C7.729 34.8441 7.95163 34.3066 8.3479 33.9104L19.5118 22.75L8.35141 11.5861C7.95514 11.1899 7.73252 10.6524 7.73252 10.092C7.73252 9.53158 7.95514 8.99413 8.35141 8.59785C8.74768 8.20158 9.28514 7.97896 9.84555 7.97896C10.406 7.97896 10.9434 8.20158 11.3397 8.59785L22.5 19.7617L33.6639 8.5961C34.0602 8.19983 34.5976 7.9772 35.1581 7.9772C35.7185 7.9772 36.2559 8.19983 36.6522 8.5961C37.0485 8.99237 37.2711 9.52983 37.2711 10.0902C37.2711 10.6506 37.0485 11.1881 36.6522 11.5844L25.4883 22.75L36.6487 33.9139Z" fill="black"/>
</svg>
